<?xml version="1.0" encoding="utf-8"?>
<!-- Generator: Adobe Illustrator 23.0.2, SVG Export Plug-In . SVG Version: 6.00 Build 0)  -->
<svg version="1.1" id="Camada_1" xmlns="http://www.w3.org/2000/svg" xmlns:xlink="http://www.w3.org/1999/xlink" x="0px" y="0px"
	 viewBox="0 0 197.04 62.58" style="enable-background:new 0 0 197.04 62.58;" xml:space="preserve">
<style type="text/css">
	.st0{fill:#F03530;}
	.st1{fill:#F05A5B;}
</style>
<g>
	<path class="st0" d="M59.88,62.48c-0.67,0-1.33-0.26-1.84-0.76L39.86,43.55c-1.02-1.02-1.02-2.66,0-3.68
		c1.02-1.02,2.66-1.02,3.68,0l18.17,18.17c1.02,1.02,1.02,2.66,0,3.68C61.21,62.22,60.54,62.48,59.88,62.48L59.88,62.48z"/>
	<path class="st0" d="M25.38,50.76C11.39,50.76,0,39.38,0,25.38S11.39,0,25.38,0s25.38,11.39,25.38,25.38S39.38,50.76,25.38,50.76z
		 M25.38,5.21c-11.12,0-20.18,9.05-20.18,20.18s9.05,20.18,20.18,20.18s20.18-9.05,20.18-20.18S36.51,5.21,25.38,5.21z"/>
	<path class="st0" d="M43.24,43.4c-0.59,0.59-1.21,1.14-1.86,1.67l16.65,16.65c0.51,0.51,1.17,0.76,1.84,0.76
		c0.63,0,1.26-0.23,1.76-0.69L43.24,43.4z"/>
	<path class="st0" d="M7.36,7.52C2.81,12.11,0,18.42,0,25.38c0,14,11.39,25.38,25.38,25.38c6.06,0,11.63-2.14,16.01-5.7
		c0.65-0.53,1.27-1.08,1.86-1.67l-3.68-3.68c-3.65,3.61-8.66,5.84-14.18,5.84c-11.12,0-20.18-9.05-20.18-20.18
		c0-5.52,2.23-10.54,5.84-14.18L7.36,7.52z"/>
	<g>
		<path class="st0" d="M22.99,35.75c-1.05-0.24-1.71-1.29-1.46-2.34l3.9-16.92c0.24-1.05,1.31-1.7,2.34-1.46
			c1.05,0.24,1.71,1.29,1.46,2.34l-3.9,16.92C25.1,35.31,24.08,35.99,22.99,35.75L22.99,35.75z"/>
		<path class="st0" d="M33.84,33.19c-0.53,0-1.06-0.22-1.45-0.65c-0.72-0.8-0.66-2.04,0.15-2.76l4.9-4.4l-4.9-4.4
			c-0.8-0.72-0.87-1.96-0.15-2.76c0.72-0.8,1.96-0.87,2.76-0.15l6.51,5.86c0.41,0.37,0.65,0.9,0.65,1.45s-0.23,1.08-0.65,1.45
			l-6.51,5.86C34.77,33.03,34.31,33.19,33.84,33.19L33.84,33.19z"/>
		<path class="st0" d="M16.92,33.19c-0.47,0-0.93-0.16-1.31-0.5l-6.51-5.86c-0.41-0.37-0.65-0.9-0.65-1.45s0.23-1.08,0.65-1.45
			l6.51-5.86c0.8-0.72,2.03-0.66,2.76,0.15c0.72,0.8,0.66,2.04-0.15,2.76l-4.9,4.4l4.9,4.4c0.8,0.72,0.87,1.96,0.15,2.76
			C17.99,32.97,17.46,33.19,16.92,33.19L16.92,33.19z"/>
	</g>
	<path class="st1" d="M27.38,25h-4l-1.85,8.02c-0.24,1.05,0.41,2.1,1.46,2.34c0.15,0.03,0.3,0.05,0.44,0.05
		c0.91,0,1.69-0.63,1.9-1.52L27.38,25z"/>
	<path class="st1" d="M42.3,25h-4.87h0l-4.84,4.36c-0.61,0.55-0.89,1.43-0.58,2.19c0.34,0.84,1.09,1.26,1.83,1.26
		c0.47,0,0.93-0.16,1.31-0.5l6.51-5.86C42.07,26.08,42.3,25.55,42.3,25L42.3,25z"/>
	<path class="st1" d="M13.33,25H8.46c0,0.55,0.23,1.08,0.65,1.45l6.51,5.86c0.37,0.34,0.84,0.5,1.31,0.5c0.53,0,1.06-0.22,1.45-0.65
		c0.72-0.8,0.66-2.04-0.15-2.76L13.33,25z"/>
</g>
<g>
	<path class="st0" d="M70.5,42.19V27.15h-3.24v-3.96h3.24V22.1c0-1.06,0.16-2.02,0.49-2.88c0.32-0.86,0.79-1.61,1.39-2.25
		s1.31-1.13,2.14-1.48c0.83-0.35,1.75-0.52,2.75-0.52c0.7,0,1.33,0.08,1.91,0.25s1.08,0.37,1.51,0.61l-1.01,3.82
		c-0.26-0.1-0.54-0.19-0.83-0.29c-0.29-0.1-0.6-0.14-0.94-0.14c-0.79,0-1.39,0.28-1.78,0.83c-0.4,0.55-0.59,1.34-0.59,2.38v0.76
		h12.31v19.01h-5.04V27.15h-7.27v15.05H70.5z M88.21,18.04c0,0.55-0.13,1.04-0.38,1.48c-0.25,0.43-0.6,0.77-1.04,1.03
		c-0.44,0.25-0.93,0.38-1.46,0.38c-0.53,0-1.01-0.13-1.46-0.38c-0.44-0.25-0.79-0.59-1.04-1.03c-0.25-0.43-0.38-0.92-0.38-1.48
		s0.13-1.04,0.38-1.48c0.25-0.43,0.6-0.77,1.04-1.03c0.44-0.25,0.93-0.38,1.46-0.38c0.53,0,1.01,0.13,1.46,0.38
		c0.44,0.25,0.79,0.59,1.04,1.03C88.09,16.99,88.21,17.48,88.21,18.04z"/>
	<path class="st0" d="M91.88,42.19V23.19h4.64l0.14,2.45c0.55-0.91,1.31-1.64,2.29-2.18c0.97-0.54,2.08-0.81,3.33-0.81
		c1.39,0,2.61,0.33,3.65,0.99c1.04,0.66,1.85,1.6,2.43,2.83c0.58,1.22,0.86,2.66,0.86,4.32v11.41h-5.04V31.43
		c0-1.32-0.3-2.36-0.9-3.11c-0.6-0.76-1.43-1.13-2.48-1.13c-0.77,0-1.44,0.17-2.02,0.52c-0.58,0.35-1.03,0.83-1.37,1.46
		c-0.34,0.63-0.5,1.33-0.5,2.12v10.91H91.88z"/>
	<path class="st0" d="M121.26,42.73c-1.22,0-2.36-0.25-3.42-0.76c-1.06-0.5-1.98-1.21-2.77-2.11c-0.79-0.9-1.41-1.95-1.85-3.15
		s-0.67-2.51-0.67-3.92c0-1.44,0.23-2.77,0.68-4c0.46-1.22,1.09-2.3,1.91-3.22c0.82-0.92,1.77-1.64,2.86-2.16s2.27-0.77,3.55-0.77
		c1.18,0,2.25,0.23,3.22,0.7c0.97,0.47,1.78,1.12,2.43,1.96v-9.97h5.04v26.86h-4.64l-0.14-2.77c-0.67,1.03-1.54,1.84-2.61,2.43
		C123.77,42.44,122.58,42.73,121.26,42.73z M122.48,38.2c0.91,0,1.73-0.24,2.45-0.72c0.72-0.48,1.29-1.13,1.71-1.96
		c0.42-0.83,0.63-1.77,0.63-2.83c0-1.06-0.21-2-0.63-2.83c-0.42-0.83-0.99-1.48-1.71-1.96c-0.72-0.48-1.54-0.72-2.45-0.72
		s-1.73,0.24-2.45,0.72c-0.72,0.48-1.29,1.13-1.71,1.96s-0.63,1.77-0.63,2.83c0,1.06,0.21,2,0.63,2.83s0.99,1.48,1.71,1.96
		S121.57,38.2,122.48,38.2z"/>
	<path class="st0" d="M145.09,42.73c-1.37,0-2.63-0.25-3.8-0.74c-1.16-0.49-2.17-1.18-3.02-2.07c-0.85-0.89-1.52-1.94-2-3.15
		c-0.48-1.21-0.72-2.53-0.72-3.94c0-1.44,0.25-2.78,0.74-4.01c0.49-1.24,1.18-2.32,2.05-3.24s1.9-1.64,3.08-2.16
		s2.45-0.77,3.82-0.77s2.63,0.26,3.78,0.77c1.15,0.52,2.13,1.24,2.93,2.18c0.8,0.94,1.36,2.03,1.67,3.28l-4.79,0.94
		c-0.36-0.82-0.86-1.46-1.51-1.93c-0.65-0.47-1.38-0.7-2.2-0.7c-0.86,0-1.63,0.24-2.29,0.72c-0.66,0.48-1.18,1.15-1.57,2
		c-0.38,0.85-0.58,1.81-0.58,2.86c0,1.06,0.19,1.99,0.56,2.81c0.37,0.82,0.89,1.46,1.57,1.93s1.44,0.7,2.3,0.7s1.64-0.23,2.34-0.68
		s1.21-1.1,1.55-1.94l4.79,0.94c-0.31,1.27-0.89,2.38-1.75,3.31c-0.85,0.94-1.88,1.66-3.08,2.16
		C147.78,42.48,146.48,42.73,145.09,42.73z"/>
	<path class="st0" d="M156.83,42.19V23.19h4.64l0.14,2.45c0.55-0.91,1.31-1.64,2.29-2.18c0.97-0.54,2.08-0.81,3.33-0.81
		c1.39,0,2.61,0.33,3.65,0.99c1.04,0.66,1.85,1.6,2.43,2.83s0.86,2.66,0.86,4.32v11.41h-5.04V31.43c0-1.32-0.3-2.36-0.9-3.11
		c-0.6-0.76-1.43-1.13-2.48-1.13c-0.77,0-1.44,0.17-2.02,0.52c-0.58,0.35-1.03,0.83-1.37,1.46c-0.34,0.63-0.5,1.33-0.5,2.12v10.91
		H156.83z"/>
	<path class="st0" d="M187.03,42.73c-1.37,0-2.63-0.25-3.8-0.74c-1.17-0.49-2.17-1.18-3.02-2.07c-0.85-0.89-1.52-1.94-2-3.15
		c-0.48-1.21-0.72-2.53-0.72-3.94c0-1.44,0.25-2.78,0.74-4.01c0.49-1.24,1.17-2.32,2.05-3.24c0.88-0.92,1.9-1.64,3.08-2.16
		c1.18-0.52,2.45-0.77,3.82-0.77s2.63,0.26,3.78,0.77c1.15,0.52,2.13,1.24,2.93,2.18c0.8,0.94,1.36,2.03,1.67,3.28l-4.79,0.94
		c-0.36-0.82-0.86-1.46-1.51-1.93c-0.65-0.47-1.38-0.7-2.2-0.7c-0.86,0-1.63,0.24-2.29,0.72c-0.66,0.48-1.18,1.15-1.57,2
		c-0.38,0.85-0.58,1.81-0.58,2.86c0,1.06,0.19,1.99,0.56,2.81c0.37,0.82,0.89,1.46,1.57,1.93s1.44,0.7,2.3,0.7
		c0.86,0,1.64-0.23,2.34-0.68c0.7-0.46,1.21-1.1,1.55-1.94l4.79,0.94c-0.31,1.27-0.89,2.38-1.75,3.31s-1.88,1.66-3.08,2.16
		S188.42,42.73,187.03,42.73z"/>
</g>
</svg>
